<mxfile host="app.diagrams.net" modified="2023-11-07T02:55:42.580Z" agent="Mozilla/5.0 (Windows NT 10.0; Win64; x64) AppleWebKit/537.36 (KHTML, like Gecko) Chrome/118.0.0.0 Safari/537.36" etag="OqQp9Pt7S-QSv9m4mYGC" version="22.0.8" type="github">
  <diagram name="第 1 页" id="Q8duIhHhUfBPON7KNC7M">
    <mxGraphModel dx="1594" dy="1517" grid="0" gridSize="10" guides="0" tooltips="1" connect="1" arrows="1" fold="1" page="0" pageScale="1" pageWidth="827" pageHeight="1169" math="0" shadow="0">
      <root>
        <mxCell id="0" />
        <mxCell id="1" parent="0" />
        <mxCell id="cExm4EOuze4kh879jA_V-1" value="&lt;font face=&quot;Comic Sans MS&quot; style=&quot;font-size: 23px;&quot;&gt;00&lt;/font&gt;" style="rounded=0;whiteSpace=wrap;html=1;sketch=1;curveFitting=1;jiggle=2;" vertex="1" parent="1">
          <mxGeometry x="-701" y="-99" width="120" height="60" as="geometry" />
        </mxCell>
        <mxCell id="cExm4EOuze4kh879jA_V-2" value="&lt;font face=&quot;Comic Sans MS&quot; style=&quot;font-size: 23px;&quot;&gt;01&lt;/font&gt;" style="rounded=0;whiteSpace=wrap;html=1;sketch=1;curveFitting=1;jiggle=2;" vertex="1" parent="1">
          <mxGeometry x="-701" y="-31" width="120" height="60" as="geometry" />
        </mxCell>
        <mxCell id="cExm4EOuze4kh879jA_V-3" value="&lt;font face=&quot;Comic Sans MS&quot;&gt;&lt;span style=&quot;font-size: 23px;&quot;&gt;10&lt;/span&gt;&lt;/font&gt;" style="rounded=0;whiteSpace=wrap;html=1;sketch=1;curveFitting=1;jiggle=2;" vertex="1" parent="1">
          <mxGeometry x="-702" y="36" width="120" height="60" as="geometry" />
        </mxCell>
        <mxCell id="cExm4EOuze4kh879jA_V-7" value="&lt;font face=&quot;Comic Sans MS&quot;&gt;&lt;span style=&quot;font-size: 23px;&quot;&gt;11&lt;/span&gt;&lt;/font&gt;" style="rounded=0;whiteSpace=wrap;html=1;sketch=1;curveFitting=1;jiggle=2;" vertex="1" parent="1">
          <mxGeometry x="-701" y="102" width="120" height="60" as="geometry" />
        </mxCell>
        <mxCell id="cExm4EOuze4kh879jA_V-8" value="&lt;font face=&quot;Comic Sans MS&quot;&gt;&lt;span style=&quot;font-size: 23px;&quot;&gt;0100&lt;/span&gt;&lt;/font&gt;" style="rounded=0;whiteSpace=wrap;html=1;sketch=1;curveFitting=1;jiggle=2;" vertex="1" parent="1">
          <mxGeometry x="-381" y="-156" width="190" height="60" as="geometry" />
        </mxCell>
        <mxCell id="cExm4EOuze4kh879jA_V-9" value="&lt;font face=&quot;Comic Sans MS&quot;&gt;&lt;span style=&quot;font-size: 23px;&quot;&gt;0100&lt;/span&gt;&lt;/font&gt;" style="rounded=0;whiteSpace=wrap;html=1;sketch=1;curveFitting=1;jiggle=2;" vertex="1" parent="1">
          <mxGeometry x="-371" y="183" width="190" height="60" as="geometry" />
        </mxCell>
        <mxCell id="cExm4EOuze4kh879jA_V-10" value="&lt;font face=&quot;Comic Sans MS&quot;&gt;&lt;span style=&quot;font-size: 23px;&quot;&gt;0100&lt;/span&gt;&lt;/font&gt;" style="rounded=0;whiteSpace=wrap;html=1;sketch=1;curveFitting=1;jiggle=2;" vertex="1" parent="1">
          <mxGeometry x="-284" y="-304" width="190" height="60" as="geometry" />
        </mxCell>
        <mxCell id="cExm4EOuze4kh879jA_V-11" value="1100" style="rounded=0;whiteSpace=wrap;html=1;sketch=1;curveFitting=1;jiggle=2;" vertex="1" parent="1">
          <mxGeometry x="-382" y="-97" width="190" height="60" as="geometry" />
        </mxCell>
        <mxCell id="cExm4EOuze4kh879jA_V-12" value="&lt;font face=&quot;Comic Sans MS&quot;&gt;&lt;span style=&quot;font-size: 23px;&quot;&gt;0100&lt;/span&gt;&lt;/font&gt;" style="rounded=0;whiteSpace=wrap;html=1;sketch=1;curveFitting=1;jiggle=2;" vertex="1" parent="1">
          <mxGeometry x="-375" y="11" width="190" height="60" as="geometry" />
        </mxCell>
        <mxCell id="cExm4EOuze4kh879jA_V-13" value="&lt;font face=&quot;Comic Sans MS&quot;&gt;&lt;span style=&quot;font-size: 23px;&quot;&gt;0100&lt;/span&gt;&lt;/font&gt;" style="rounded=0;whiteSpace=wrap;html=1;sketch=1;curveFitting=1;jiggle=2;" vertex="1" parent="1">
          <mxGeometry x="-379" y="83" width="190" height="60" as="geometry" />
        </mxCell>
      </root>
    </mxGraphModel>
  </diagram>
</mxfile>
